# xmcd
#
# Track frame offsets:
#	150
#	16665
#	28904
#	45400
#	62691
#	83614
#	94137
#	119231
#	135707
#	150343
#	164630
#	185235
#	201858
#	213571
#	259093
#	271665
#	282198
#	301021
#
# Disc length: 4332 seconds
#
# Revision: 2
# Processed by: cddbd v1.5.2PL0 Copyright (c) Steve Scherf et al.
# Submitted via: dBpowerAMP V4.0
#
DISCID=fa10ea12
DTITLE=Ambrósio e Grampulino - Pirado por Jesus
DYEAR=1900
DGENRE=Católica
TTITLE0=Jesus te Ama
TTITLE1=Saia de Cima do Muro
TTITLE2=O Perdão é a Cura
TTITLE3=Pirado por Jesus
TTITLE4=Dona Maroca Fofoqueira
TTITLE5=Tchá, Tchá, Tchá
TTITLE6=Crazy for Jesus
TTITLE7=Passa Fogo
TTITLE8=Pernambuquês
TTITLE9=O Missionário
TTITLE10=Quando eu Digo - Ave Maria
TTITLE11=Programa Pirado Por Jesus
TTITLE12=DDD - Doidin de Deus (Bônus)
TTITLE13=VCC - Pregação de Mané da Guabiraba
TTITLE14=Pirado por Jesus Remix (Bônus)
TTITLE15=DDD Notícias
TTITLE16=A Carta do ouvinte
TTITLE17=Perguntas sobre fé
EXTD=
EXTT0=
EXTT1=
EXTT2=
EXTT3=
EXTT4=
EXTT5=
EXTT6=
EXTT7=
EXTT8=
EXTT9=
EXTT10=
EXTT11=
EXTT12=
EXTT13=
EXTT14=
EXTT15=
EXTT16=
EXTT17=
PLAYORDER=
